<svg class="icon" viewBox="0 0 1024 1024" xmlns="http://www.w3.org/2000/svg">
  <path d="M228.448 92.64v75.776c0 38.752 31.68 70.432 70.432 70.432 38.784 0 70.464-31.68 70.464-70.432V92.64h274.752v75.776c0 38.752 31.808 70.56 70.56 70.56s70.464-31.68 70.464-70.464V92.8h38.08a141.28 141.28 0 0 1 140.928 140.896v624a141.28 141.28 0 0 1-140.928 140.896H188.896A141.28 141.28 0 0 1 48 857.6V233.6a141.28 141.28 0 0 1 140.896-140.928H228.48zM810.304 320H176v458.336c0 38.752 31.68 70.464 70.464 70.464H739.84c38.784 0 70.464-31.68 70.464-70.464V320z" fill="#2f765e"/>
  <path d="M299.616 219.424c31.04 0 56.448-25.408 56.448-56.416v-106.56C356.064 25.376 330.656 0 299.616 0S243.2 25.408 243.2 56.416v106.56c0 31.04 25.408 56.448 56.416 56.448zM715.296 219.424c31.04 0 56.416-25.408 56.416-56.416v-106.56c0-31.04-25.408-56.448-56.416-56.448-31.04 0-56.448 25.408-56.448 56.416v106.56c0.128 31.04 25.408 56.448 56.448 56.448zM356.8 776c38.016-68.864 48.992-133.056 48.992-290.208v-42.24h78.144v22.4h-35.488a171.52 171.52 0 0 1-28.288-1.696v52.384c8-0.864 16.896-1.28 28.288-1.28h35.52v18.592h-34.24c-19.84 0-28.736-0.416-37.6-1.696v55.36c9.728-1.28 19.424-1.696 37.6-1.696h130.944c18.176 0 27.456 0.416 37.6 1.664v-55.328c-8.864 1.28-18.592 1.696-38.016 1.696h-35.072v-18.56H582.4c11.392 0 19.424 0.384 28.704 1.248v-52.384c-8.448 1.28-16.448 1.696-28.704 1.696h-37.184v-22.4h81.12v255.552c0 6.848-1.376 8.224-11.84 8.416l-9.28 0.032v-76.448c0-13.504 0.416-20.704 1.664-30.848a187.04 187.04 0 0 1-17.92 0.832h-150.72a404.704 404.704 0 0 1-21.856-0.832c1.28 8.896 1.696 15.648 1.696 29.152v79.424c0 14.368-0.832 24.48-2.112 35.04h63.36v-19.424h87.04c5.888 16.064 8 25.344 10.944 43.104 17.344 0.416 25.344 0.416 35.072 0.416 29.984 0 47.296-2.56 57.44-8.032 13.12-6.752 19.424-21.12 19.424-43.936V438.08c0-24.512 0.448-36.352 2.112-54.08-12.672 1.696-22.4 2.112-47.712 2.112h-254.304c-24.48 0-34.208-0.416-48.96-2.112 1.664 16.896 2.496 33.792 2.496 57.856 0 176.576-7.168 226.432-38.848 279.232 20.704 15.2 35.488 30.4 52.8 54.912z m187.52-102.656h-65.44v-22.816h65.472v22.816z" fill="#2f765e"/>
</svg>
